<svg width="930" height="500" xmlns="http://www.w3.org/2000/svg">
  <!-- Background -->
  <rect x="0" y="0" width="1000" height="500" style="fill:lightyellow;" />
  
  <!-- Metadata Block -->
  <rect x="10" y="20" width="900" height="60" style="fill:lightgray;stroke:black;stroke-width:1" />
  <text x="10" y="13" font-family="Arial" font-size="14" text-anchor="start" alignment-baseline="middle">Sector 0: Metadata</text>
  
  <!-- Metadata Fields -->
  <line x1="235" y1="20" x2="235" y2="80" style="stroke:black;stroke-width:1" />
  <line x1="460" y1="20" x2="460" y2="80" style="stroke:black;stroke-width:1" />
  <line x1="685" y1="20" x2="685" y2="80" style="stroke:black;stroke-width:1" />
  
  <text x="122.5" y="50" font-family="Arial" font-size="12" text-anchor="middle" alignment-baseline="middle">Signature</text>
  <text x="347.5" y="50" font-family="Arial" font-size="12" text-anchor="middle" alignment-baseline="middle">Total Records</text>
  <text x="572.5" y="50" font-family="Arial" font-size="12" text-anchor="middle" alignment-baseline="middle">Total Size</text>
  <text x="797.5" y="50" font-family="Arial" font-size="12" text-anchor="middle" alignment-baseline="middle">Version</text>
  
  <!-- Data Blocks -->
  <rect x="10" y="100" width="900" height="60" style="fill:white;stroke:black;stroke-width:1" />
  <text x="10" y="93" font-family="Arial" font-size="14" text-anchor="start" alignment-baseline="middle">Sector 1: Record</text>
  
  <line x1="300" y1="100" x2="300" y2="160" style="stroke:black;stroke-width:1" />
  <line x1="600" y1="100" x2="600" y2="160" style="stroke:black;stroke-width:1" />
  
  <text x="155" y="130" font-family="Arial" font-size="12" text-anchor="middle" alignment-baseline="middle">Key</text>
  <text x="450" y="130" font-family="Arial" font-size="12" text-anchor="middle" alignment-baseline="middle">Value Length</text>
  <text x="750" y="130" font-family="Arial" font-size="12" text-anchor="middle" alignment-baseline="middle">Value</text>
  
  <!-- Deleted Block -->
  <rect x="10" y="180" width="900" height="60" style="fill:lightcoral;stroke:black;stroke-width:1" />
  <text x="10" y="173" font-family="Arial" font-size="14" text-anchor="start" alignment-baseline="middle">Sector 2: Deleted</text>
  
  <line x1="110" y1="180" x2="110" y2="240" style="stroke:black;stroke-width:1" />
  
  <text x="60" y="210" font-family="Arial" font-size="12" text-anchor="middle" alignment-baseline="middle">Deleted Marker</text>

  <rect x="10" y="260" width="900" height="60" style="fill:white;stroke:black;stroke-width:1" />
  <text x="10" y="253" font-family="Arial" font-size="14" text-anchor="start" alignment-baseline="middle">Sector 3: Record</text>
  
  <line x1="300" y1="260" x2="300" y2="320" style="stroke:black;stroke-width:1" />
  <line x1="600" y1="260" x2="600" y2="320" style="stroke:black;stroke-width:1" />
  
  <text x="155" y="290" font-family="Arial" font-size="12" text-anchor="middle" alignment-baseline="middle">Key</text>
  <text x="450" y="290" font-family="Arial" font-size="12" text-anchor="middle" alignment-baseline="middle">Value Length</text>
  <text x="750" y="290" font-family="Arial" font-size="12" text-anchor="middle" alignment-baseline="middle">Value</text>
  
  <!-- Deleted Block -->
  <rect x="10" y="340" width="900" height="60" style="fill:lightcoral;stroke:black;stroke-width:1" />
  <text x="10" y="333" font-family="Arial" font-size="14" text-anchor="start" alignment-baseline="middle">Sector 4: Deleted</text>
  
  <line x1="110" y1="340" x2="110" y2="400" style="stroke:black;stroke-width:1" />
  
  <text x="60" y="370" font-family="Arial" font-size="12" text-anchor="middle" alignment-baseline="middle">Deleted Marker</text>
  
  <!-- Compaction Block -->
  <rect x="10" y="420" width="900" height="60" style="fill:lightblue;stroke:black;stroke-width:1" />
  <text x="10" y="413" font-family="Arial" font-size="14" text-anchor="start" alignment-baseline="middle">Compacted Sectors</text>
  
</svg>